<svg height="34" xmlns="http://www.w3.org/2000/svg" width="200"><rect height="32" rx="6" ry="6" x="1" y="1" fill="#1f883d" stroke="rgba(31,35,40,0.15)" width="160"/><path fill-rule="evenodd" fill="#88dda0" d="M10.5 17a6.5 6.5 0 1 1 13 0 6.5 6.5 0 0 1-13 0zM17 9a8 8 0 1 0 0 16 8 8 0 0 0 0-16zm-1.621 5.227a.25.25 0 0 0-.379.215v5.117a.25.25 0 0 0 .379.214l4.264-2.559a.25.25 0 0 0 0-.428l-4.264-2.559z"/><text y="18" dominant-baseline="middle" text-anchor="middle" fill="#fff" font-family="system-ui" font-weight="500" font-size="14" x="90">Começar o curso</text></svg>
